/* XPM */
static char *_66b379f8f3b464ebd558afdc08efc36sIfbafPEkqEhRIKP[] = {
/* columns rows colors chars-per-pixel */
"32 32 3 1 ",
"  c None",
". c black",
"X c #FFFC00",
/* pixels */
"              ....              ",
"              ....              ",
"            ..XXXX..            ",
"            ..XXXX..            ",
"            ..XXXX..            ",
"            ..XXXX..            ",
"          ..XXXXXXXX..          ",
"          ..XXXXXXXX..          ",
"............XXXXXXXX............",
"............XXXXXXXX............",
"..XXXXXXXXXXXXXXXXXXXXXXXXXXXX..",
"..XXXXXXXXXXXXXXXXXXXXXXXXXXXX..",
"  ..XXXXXXXXXXXXXXXXXXXXXXXX... ",
"  ..XXXXXXXXXXXXXXXXXXXXXXXX... ",
"    ..XXXXXX..XXXX..XXXXXX..    ",
"    ..XXXXXX..XXXX..XXXXXX..    ",
"      ..XXXX..XXXX..XXXX..      ",
"      ..XXXX..XXXX..XXXX..      ",
"      ..XXXXXXXXXXXXXXXX..      ",
"      ..XXXXXXXXXXXXXXXX..      ",
"    ..XXXXXXXXXXXXXXXXXXXX..    ",
"    ..XXXXXXXXXXXXXXXXXXXX..    ",
"    ..XXXXXXXXXXXXXXXXXXXX..    ",
"    ..XXXXXXXXXXXXXXXXXXXX..    ",
"  ..XXXXXXXXXX....XXXXXXXXXX..  ",
"  ..XXXXXXXXXX....XXXXXXXXXX..  ",
"  ..XXXXXX....    ....XXXXXX..  ",
"  ..XXXXXX....    ....XXXXXX..  ",
"..XXXX....            ....XXXX..",
"..XXXX....            ....XXXX..",
"......                    ......",
"......                    ......"
};
