/* XPM */
static char *_1c4342d42ae4666860387bff6bcd81bEfEbc77AvRg6zMeG[] = {
/* columns rows colors chars-per-pixel */
"32 32 4 1 ",
"  c None",
". c black",
"X c #59FF60",
"o c #009D07",
/* pixels */
"                                ",
"                                ",
"                                ",
"                                ",
"                                ",
"                                ",
"                                ",
"                                ",
"  ............................  ",
"  ............................  ",
"  ..XXXXXXXXXXXXXXXXXXXXXXXX..  ",
"  ..XXXXXXXXXXXXXXXXXXXXXXXX..  ",
"  ..XXooooXXXXooooooooooXXoo..  ",
"  ..XXooooXXXXooooooooooXXoo..  ",
"  ..XXooooXXXXooXXooooooooXX..  ",
"  ..XXooooXXXXooXXooooooooXX..  ",
"  ..XXooooXXXXooXXooooooXXoo..  ",
"  ..XXooooXXXXooXXooooooXXoo..  ",
"  ..XXooooXXXXooXXooooooooXX..  ",
"  ..XXooooXXXXooXXooooooooXX..  ",
"  ............................  ",
"  ............................  ",
"    ..XXooooXXXXooooooXXoo..    ",
"    ..XXooooXXXXooooooXXoo..    ",
"    ..XXooooXXXXooooooooXX..    ",
"    ..XXooooXXXXooooooooXX..    ",
"    ..XXooooXXXXooooooXXoo..    ",
"    ..XXooooXXXXooooooXXoo..    ",
"    ..XXooooXXXXooooooooXX..    ",
"    ..XXooooXXXXooooooooXX..    ",
"    ..XXooooXXXXooooooXXoo..    ",
"    ..XXooooXXXXooooooXXoo..    "
};
