/* XPM */
static char *a296573b598344f1923b64162f9714bftmDRgqxjcBbtzctR[] = {
/* columns rows colors chars-per-pixel */
"32 32 2 1 ",
"  c black",
". c #FF6C00",
/* pixels */
"                                ",
" ..............  .............. ",
" ..............  .............. ",
" ..............  .............. ",
" ..............  .............. ",
" ..............  .............. ",
" ..............  .............. ",
"                                ",
"                                ",
".......  ..............  .......",
".......  ..............  .......",
".......  ..............  .......",
".......  ..............  .......",
".......  ..............  .......",
".......  ..............  .......",
"                                ",
"                                ",
" ..............  .............. ",
" ..............  .............. ",
" ..............  .............. ",
" ..............  .............. ",
" ..............  .............. ",
" ..............  .............. ",
"                                ",
"                                ",
".......  ..............  .......",
".......  ..............  .......",
".......  ..............  .......",
".......  ..............  .......",
".......  ..............  .......",
".......  ..............  .......",
"                                "
};
