/* XPM */
static char *_4e20599d6ae4ffcc8ffdd883625ed1esCFEJOkukYfgdcyf[] = {
/* columns rows colors chars-per-pixel */
"32 32 7 1 ",
"  c None",
". c #00FCFF",
"X c #4A2C00",
"o c #CAA660",
"O c black",
"+ c #0072FF",
"@ c gray34",
/* pixels */
"          ..........            ",
"          ..........            ",
"        ..................      ",
"        ..................      ",
"        XXXXXXooooOOoo          ",
"        XXXXXXooooOOoo          ",
"      XXooXXooooooOOoooooo      ",
"      XXooXXooooooOOoooooo      ",
"      XXooXXXXooooooooXXoooo    ",
"      XXooXXXXooooooooXXoooo    ",
"        XXooooooooooXXXXXX      ",
"        XXooooooooooXXXXXX      ",
"          oooooooooooooo        ",
"          oooooooooooooo        ",
"        ++++..++++++            ",
"        ++++..++++++            ",
"      ++++++..++++..++++++      ",
"      ++++++..++++..++++++      ",
"    ++++++++........++++++++    ",
"    ++++++++........++++++++    ",
"    oooo++....@@@@....++oooo    ",
"    oooo++....@@@@....++oooo    ",
"    oooooo............oooooo    ",
"    oooooo............oooooo    ",
"    oooo................oooo    ",
"    oooo................oooo    ",
"        ......    ......        ",
"        ......    ......        ",
"      ++++++        ++++++      ",
"      ++++++        ++++++      ",
"    ++++++++        ++++++++    ",
"    ++++++++        ++++++++    "
};
